<?xml version="1.0" encoding="utf-8"?>
<!-- Generator: Adobe Illustrator 22.1.0, SVG Export Plug-In . SVG Version: 6.00 Build 0)  -->
<svg version="1.1" id="Layer_1" xmlns="http://www.w3.org/2000/svg" xmlns:xlink="http://www.w3.org/1999/xlink" x="0px" y="0px"
	 viewBox="0 0 512 130.6" style="enable-background:new 0 0 512 130.6;" xml:space="preserve">
<style type="text/css">
	.st0{fill:#FFFFFF;}
</style>
<title>logo</title>
<path class="st0" d="M0,128.9V1.6h27.9v104.6h56.7v22.7H0z"/>
<path class="st0" d="M127.2,122.6c-9.3-5.3-16.9-13.2-21.7-22.8C100.3,89,97.7,77.1,98,65.1c-0.3-11.9,2.3-23.8,7.6-34.5
	c4.8-9.5,12.4-17.4,21.7-22.6c10.1-5.5,21.6-8.2,33.1-7.9c11.5-0.3,23,2.4,33.1,7.9c9.2,5.3,16.7,13.1,21.5,22.6
	c5.2,10.8,7.7,22.6,7.4,34.5c0.3,12-2.3,23.9-7.5,34.7c-4.7,9.6-12.2,17.5-21.5,22.8c-10.1,5.5-21.6,8.3-33.1,7.9
	C148.7,130.8,137.3,128.1,127.2,122.6z M185.3,97.4c6.1-7.5,9-18.3,9-32.3s-3-24.8-9-32c-6.1-7.5-15.5-11.6-25.1-11.1
	c-9.7-0.5-19,3.6-25.1,11.1c-6,7.4-9,18.1-9,32.2c0,14.1,3,24.9,9,32.4c6.1,7.5,15.5,11.6,25.1,11.1
	C169.9,109.2,179.2,105,185.3,97.4z"/>
<path class="st0" d="M360.3,58.7V121c-6.9,3.2-14.2,5.6-21.8,7c-8.4,1.7-16.9,2.5-25.4,2.5c-12.2,0.3-24.2-2.4-35-7.9
	c-9.7-5-17.6-12.9-22.7-22.5c-5.6-10.8-8.3-22.9-8-35c-0.3-12,2.5-23.9,8-34.5c5.1-9.6,12.9-17.5,22.5-22.6
	C288.3,2.5,300-0.2,311.8,0c8.7-0.1,17.4,1.2,25.7,3.7c7.2,2.1,13.8,5.7,19.6,10.5l-9,20.1c-5.3-4-11.1-7.2-17.3-9.5
	c-5.9-1.9-12.1-2.9-18.3-2.8c-24.5,0-36.8,14.3-36.8,42.9c0,29.2,12.8,43.8,38.4,43.8c7.1,0,14.2-0.9,21.1-2.6V78.2h-25V58.7H360.3z
	"/>
<path class="st0" d="M416.8,122.6c-9.3-5.3-16.8-13.2-21.6-22.8c-5.2-10.8-7.7-22.7-7.4-34.7c-0.3-12,2.3-23.8,7.6-34.5
	c4.8-9.5,12.3-17.4,21.6-22.6c10.1-5.5,21.6-8.2,33.1-7.9C461.6-0.3,472.9,2.5,483,8c9.2,5.2,16.7,13.1,21.5,22.6
	c5.2,10.7,7.8,22.6,7.5,34.5c0.3,12-2.3,23.9-7.5,34.7c-4.7,9.6-12.2,17.5-21.5,22.8c-10.1,5.5-21.4,8.2-32.9,7.9
	C438.5,130.9,427,128.1,416.8,122.6z M474.9,97.4c6-7.5,9-18.3,9-32.3s-3-24.7-9-32c-12.6-13.9-34.2-14.9-48-2.2
	c-0.8,0.7-1.5,1.5-2.2,2.2c-6,7.4-9,18.1-9,32.2s3,24.9,9,32.4c12.4,13.9,33.7,15.1,47.5,2.7c1-0.9,1.9-1.8,2.7-2.7V97.4z"/>
</svg>
